<svg width="40" height="40" viewBox="0 0 40 40" fill="none" xmlns="http://www.w3.org/2000/svg">
<rect width="40" height="40" fill="white"/>
<path d="M20 2.85718C10.5429 2.85718 2.85715 10.5429 2.85715 20C2.85715 29.4572 10.5429 37.1429 20 37.1429C29.4571 37.1429 37.1429 29.4572 37.1429 20C37.1429 10.5429 29.4571 2.85718 20 2.85718ZM20 35.7143C11.3286 35.7143 4.28572 28.6715 4.28572 20C4.28572 11.3286 11.3286 4.28575 20 4.28575C28.6714 4.28575 35.7143 11.3286 35.7143 20C35.7143 28.6715 28.6714 35.7143 20 35.7143Z" fill="#1652F0"/>
<path d="M18.5714 23.9858L15.1429 20.5572L14.1429 21.5715L18.0714 25.5001C18.2 25.643 18.3857 25.7144 18.5714 25.7144C18.7571 25.7144 18.9429 25.643 19.0714 25.5001L28 16.5715L27 15.5715L18.5714 23.9858Z" fill="#1652F0"/>
</svg>
